<?xml version="1.0" encoding="iso-8859-1"?>
<!-- Generator: Adobe Illustrator 19.0.0, SVG Export Plug-In . SVG Version: 6.00 Build 0)  -->
<svg version="1.1" id="Layer_1" xmlns="http://www.w3.org/2000/svg" xmlns:xlink="http://www.w3.org/1999/xlink" x="0px" y="0px"
	 viewBox="0 0 473.654 473.654" style="enable-background:new 0 0 473.654 473.654;" xml:space="preserve">
<circle style="fill:#E79E2D;" cx="236.827" cy="236.827" r="236.827"/>
<g>
	<path style="fill:#FFFFFF;" d="M164.489,144.482c13.717,0,27.434-0.004,41.15-0.004c14.491-0.004,14.618-22.445,0.161-22.445
		c-22.778,0.004-45.555,0.007-68.329,0.007c-6.077,0.004-11.301,5-11.301,11.14c0,22.774,0.004,45.548,0.007,68.322
		c0,14.487,22.441,14.614,22.441,0.161c0-13.777,0-27.549-0.004-41.322c16.136,16.136,32.273,32.276,48.413,48.413
		c10.224,10.224,26.031-5.699,15.785-15.953C196.702,176.695,180.595,160.589,164.489,144.482z"/>
	<path style="fill:#FFFFFF;" d="M345.503,261.905c0-14.487-22.441-14.614-22.441-0.161c0,13.777,0,27.549,0.004,41.326
		c-16.136-16.136-32.273-32.276-48.413-48.409c-10.224-10.224-26.035,5.703-15.785,15.953c16.11,16.11,32.216,32.213,48.323,48.319
		c-13.717,0-27.437,0-41.154,0c-14.491,0-14.618,22.445-0.161,22.445c22.778,0,45.555,0,68.329,0c6.081,0,11.301-5,11.301-11.14
		C345.507,307.46,345.507,284.683,345.503,261.905z"/>
	<path style="fill:#FFFFFF;" d="M391.642,105.8c-7.816-21.873-24.805-24.763-44.916-24.763c-54.142,0-108.283,0-162.428,0
		c-20.725,0-41.449,0-62.174,0c-20.624,0-36.648,7.965-40.544,29.049c-0.314,1.043-0.542,2.161-0.542,3.429
		c-0.112,0.976-0.093,1.874,0,2.719c0,40.791,0,81.579,0,122.374c0,41.356-4.177,85.102,0.561,126.248
		c2.692,23.384,24.397,27.74,43.54,27.74c23.14,0,46.281,0,69.421,0c52.313,0,104.626,0,156.939,0
		c20.182,0,41.083-8.627,41.083-32.542c0-13.997,0-27.994,0-41.992c0-56.886,0-113.769,0-170.655
		C392.592,135.447,395.83,117.52,391.642,105.8z M370.15,149.942c0,28.309,0,56.621,0,84.929c0,41.693,0,83.392,0,125.089
		c0,16.084-39.243,10.187-46.457,10.187c-28.309,0-56.617,0-84.926,0c-41.696,0-83.392,0-125.092,0
		c-16.088,0-10.19-39.232-10.19-46.453c0-28.309,0-56.621,0-84.929c0-41.693,0-83.392,0-125.089
		c1.885-16.376,37.527-10.194,46.457-10.194c28.309,0,56.617,0,84.926,0c41.696,0,83.392,0,125.092,0
		C376.044,103.481,370.15,142.721,370.15,149.942z"/>
</g>
<g>
</g>
<g>
</g>
<g>
</g>
<g>
</g>
<g>
</g>
<g>
</g>
<g>
</g>
<g>
</g>
<g>
</g>
<g>
</g>
<g>
</g>
<g>
</g>
<g>
</g>
<g>
</g>
<g>
</g>
</svg>
